<?xml version="1.0" encoding="iso-8859-1"?>
<!-- Generator: Adobe Illustrator 17.1.0, SVG Export Plug-In . SVG Version: 6.00 Build 0)  -->
<!DOCTYPE svg PUBLIC "-//W3C//DTD SVG 1.1//EN" "http://www.w3.org/Graphics/SVG/1.1/DTD/svg11.dtd">
<svg version="1.1" id="Capa_1" xmlns="http://www.w3.org/2000/svg" xmlns:xlink="http://www.w3.org/1999/xlink" x="0px" y="0px"
	 viewBox="0 0 294 294" style="enable-background:new 0 0 294 294;" xml:space="preserve">
<path d="M16.5,48c0-8.284,6.716-15,15-15h34.667V15c0-8.284,6.716-15,15-15s15,6.716,15,15v18H262.5c8.284,0,15,6.716,15,15
	s-6.716,15-15,15H96.167v18c0,8.284-6.716,15-15,15s-15-6.716-15-15V63H31.5C23.216,63,16.5,56.284,16.5,48z M262.5,132H162.167v-18
	c0-8.284-6.716-15-15-15s-15,6.716-15,15v18H31.5c-8.284,0-15,6.716-15,15s6.716,15,15,15h100.667v18c0,8.284,6.716,15,15,15
	s15-6.716,15-15v-18H262.5c8.284,0,15-6.716,15-15S270.784,132,262.5,132z M262.5,231h-34.333v-18c0-8.284-6.716-15-15-15
	s-15,6.716-15,15v18H31.5c-8.284,0-15,6.716-15,15s6.716,15,15,15h166.667v18c0,8.284,6.716,15,15,15s15-6.716,15-15v-18H262.5
	c8.284,0,15-6.716,15-15S270.784,231,262.5,231z"/>
<g>
</g>
<g>
</g>
<g>
</g>
<g>
</g>
<g>
</g>
<g>
</g>
<g>
</g>
<g>
</g>
<g>
</g>
<g>
</g>
<g>
</g>
<g>
</g>
<g>
</g>
<g>
</g>
<g>
</g>
</svg>
