<?xml version="1.0" encoding="iso-8859-1"?>
<!-- Generator: Adobe Illustrator 18.1.1, SVG Export Plug-In . SVG Version: 6.00 Build 0)  -->
<svg version="1.1" id="Capa_1" xmlns="http://www.w3.org/2000/svg" xmlns:xlink="http://www.w3.org/1999/xlink" x="0px" y="0px"
	 viewBox="0 0 25.836 25.836" style="enable-background:new 0 0 25.836 25.836;" xml:space="preserve">
<g>
	<path style="fill:#030104;" d="M22.002,16.825l3.587-7.705c0.521-1.25,0.293-2.868-1.42-3.069l-2.336-4.674
		c-0.232-0.466-0.783-0.675-1.265-0.482l-3.462,1.38c-0.066,0.026-0.114,0.074-0.171,0.112L15.198,0.36
		c-0.19-0.222-0.468-0.349-0.76-0.349s-0.569,0.127-0.759,0.349L8.804,6.048c-0.008,0.009-0.01,0.021-0.017,0.031
		c-0.519-1.766-0.91-3.094-1.001-3.405C7.398,1.357,6.701,0.011,4.469,0.011H1c-0.552,0-1,0.448-1,1s0.448,1,1,1h3.469
		c0.816,0,1.082,0.153,1.397,1.227c0.336,1.141,4.682,15.937,4.682,15.937c0.01,0.032,0.021,0.064,0.034,0.097
		c0.046,0.111,1.152,2.739,3.928,2.739h7.834c0.553,0,1-0.447,1-1s-0.447-1-1-1H14.51c-1.314,0-1.954-1.233-2.061-1.462
		c-0.026-0.089-0.082-0.278-0.158-0.538h8.104C21.425,18.011,21.904,17.148,22.002,16.825z M23.771,8.066
		c-0.012,0.069-0.033,0.149-0.066,0.235l-0.726,1.56H19.15V8.066H23.771z M17.85,9.861h-2.7V8.066h2.699v1.795H17.85z M13.85,9.861
		h-3.664L9.709,8.344C9.676,8.234,9.653,8.142,9.64,8.066h4.21V9.861z M10.594,11.161h3.256v1.7h-2.722L10.594,11.161z
		 M15.15,11.161h2.699v1.7H15.15V11.161z M19.15,11.161h3.224l-0.791,1.7H19.15V11.161z M20.455,3.093l1.458,2.918
		c-0.559,0-1.192,0-1.872,0l-1.759-2.052L20.455,3.093z M14.438,2.548l2.968,3.463c-2.144,0-4.356,0-5.937,0L14.438,2.548z
		 M12.199,15.956c-0.039,0-0.077-0.014-0.109-0.032l-0.554-1.763h2.313v1.795H12.199z M15.15,14.161h2.699v1.795H15.15V14.161z
		 M19.15,15.956v-1.795h1.827l-0.835,1.795H19.15z M15.813,24.011c0,1.001-0.812,1.813-1.813,1.813s-1.813-0.812-1.813-1.813
		s0.812-1.813,1.813-1.813S15.813,23.01,15.813,24.011z M21.813,24.011c0,1.001-0.812,1.813-1.813,1.813s-1.813-0.812-1.813-1.813
		s0.812-1.813,1.813-1.813S21.813,23.01,21.813,24.011z"/>
</g>
<g>
</g>
<g>
</g>
<g>
</g>
<g>
</g>
<g>
</g>
<g>
</g>
<g>
</g>
<g>
</g>
<g>
</g>
<g>
</g>
<g>
</g>
<g>
</g>
<g>
</g>
<g>
</g>
<g>
</g>
</svg>
